<mxfile host="app.diagrams.net" modified="2024-03-13T14:31:22.951Z" agent="Mozilla/5.0 (Windows NT 10.0; Win64; x64) AppleWebKit/537.36 (KHTML, like Gecko) Chrome/122.0.0.0 Safari/537.36 Edg/122.0.0.0" etag="26gCX47yoZK4QPK9U3j8" version="24.0.5" type="github">
  <diagram name="Halaman-1" id="9irp_9Gt-wbpUjiw4Oy6">
    <mxGraphModel dx="1050" dy="541" grid="1" gridSize="10" guides="1" tooltips="1" connect="1" arrows="1" fold="1" page="1" pageScale="1" pageWidth="827" pageHeight="1169" math="0" shadow="0">
      <root>
        <mxCell id="0" />
        <mxCell id="1" parent="0" />
        <mxCell id="DDF4RPvqAh93G92ysoaU-1" value="&lt;h1 style=&quot;margin-top: 0px;&quot;&gt;&lt;span style=&quot;background-color: initial;&quot;&gt;Requirements:&lt;/span&gt;&lt;/h1&gt;&lt;p style=&quot;margin-top: 0px; margin-bottom: 0px;&quot;&gt;&lt;span style=&quot;background-color: initial; font-weight: normal;&quot;&gt;&lt;font style=&quot;font-size: 12px;&quot;&gt;1. Find out the general informations of billionaires&lt;br&gt;&lt;/font&gt;&lt;/span&gt;&lt;span style=&quot;background-color: initial; font-weight: normal;&quot;&gt;&lt;font style=&quot;font-size: 12px;&quot;&gt;&amp;nbsp; - Matrics: amount of billionaires, average wealth, average age,&amp;nbsp;&lt;/font&gt;&lt;/span&gt;&lt;/p&gt;&lt;p style=&quot;margin-top: 0px; margin-bottom: 0px;&quot;&gt;&lt;span style=&quot;background-color: initial; font-weight: normal;&quot;&gt;&lt;font style=&quot;font-size: 12px;&quot;&gt;&amp;nbsp; &amp;nbsp; percentage of self made&lt;/font&gt;&lt;/span&gt;&lt;/p&gt;&lt;p style=&quot;margin-top: 0px; margin-bottom: 0px;&quot;&gt;&lt;font style=&quot;font-size: 12px;&quot;&gt;&lt;br&gt;&lt;/font&gt;&lt;font style=&quot;font-size: 12px;&quot;&gt;2. Find out whether there is a gender influence&lt;/font&gt;&lt;/p&gt;&lt;p style=&quot;margin-top: 0px; margin-bottom: 0px;&quot;&gt;&lt;font style=&quot;font-size: 12px;&quot;&gt;&amp;nbsp; - Pie chart: gender&lt;/font&gt;&lt;/p&gt;&lt;p style=&quot;margin-top: 0px; margin-bottom: 0px;&quot;&gt;&lt;font style=&quot;font-size: 12px;&quot;&gt;&lt;br&gt;&lt;/font&gt;&lt;/p&gt;&lt;p style=&quot;margin-top: 0px; margin-bottom: 0px;&quot;&gt;&lt;font style=&quot;font-size: 12px;&quot;&gt;3. Find out whether there is any country influence&lt;/font&gt;&lt;/p&gt;&lt;p style=&quot;margin-top: 0px; margin-bottom: 0px;&quot;&gt;&lt;font style=&quot;font-size: 12px;&quot;&gt;&amp;nbsp; - Line/bar: amount of billionaires/net worth vs cpi&amp;nbsp;&lt;/font&gt;&lt;/p&gt;&lt;p style=&quot;margin-top: 0px; margin-bottom: 0px;&quot;&gt;&lt;font style=&quot;font-size: 12px;&quot;&gt;&amp;nbsp; &amp;nbsp; country&lt;/font&gt;&lt;span style=&quot;background-color: initial;&quot;&gt;/population&lt;/span&gt;&lt;/p&gt;&lt;p style=&quot;margin-top: 0px; margin-bottom: 0px;&quot;&gt;&lt;span style=&quot;background-color: initial;&quot;&gt;&amp;nbsp; - Column: ranking, name,country&lt;/span&gt;&lt;/p&gt;&lt;p style=&quot;margin-top: 0px; margin-bottom: 0px;&quot;&gt;&lt;font style=&quot;font-size: 12px;&quot;&gt;&lt;br&gt;&lt;/font&gt;&lt;/p&gt;&lt;p style=&quot;margin-top: 0px; margin-bottom: 0px;&quot;&gt;&lt;font style=&quot;font-size: 12px;&quot;&gt;4. Find out the most profitable types of industry&lt;/font&gt;&lt;/p&gt;&lt;p style=&quot;margin-top: 0px; margin-bottom: 0px;&quot;&gt;&lt;font style=&quot;font-size: 12px;&quot;&gt;&amp;nbsp; - Bar:&amp;nbsp;&lt;/font&gt;&lt;span style=&quot;background-color: initial;&quot;&gt;amount of billionaires/net worth vs industries&lt;/span&gt;&lt;/p&gt;&lt;p style=&quot;margin-top: 0px; margin-bottom: 0px;&quot;&gt;&lt;span style=&quot;background-color: initial;&quot;&gt;&lt;br&gt;&lt;/span&gt;&lt;/p&gt;&lt;p style=&quot;margin-top: 0px; margin-bottom: 0px;&quot;&gt;&lt;span style=&quot;background-color: initial;&quot;&gt;5. Find out the distribution of billionaires in the country&lt;/span&gt;&lt;/p&gt;&lt;p style=&quot;margin-top: 0px; margin-bottom: 0px;&quot;&gt;&lt;span style=&quot;background-color: initial;&quot;&gt;&amp;nbsp; - Geo:&amp;nbsp;&lt;/span&gt;&lt;span style=&quot;background-color: initial;&quot;&gt;amount of billionaires/net worth vs country&lt;/span&gt;&lt;/p&gt;&lt;p style=&quot;margin-top: 0px; margin-bottom: 0px;&quot;&gt;&lt;font style=&quot;font-size: 12px;&quot;&gt;&lt;br&gt;&lt;/font&gt;&lt;/p&gt;" style="text;html=1;whiteSpace=wrap;overflow=hidden;rounded=0;" vertex="1" parent="1">
          <mxGeometry x="30" y="20" width="400" height="300" as="geometry" />
        </mxCell>
        <mxCell id="DDF4RPvqAh93G92ysoaU-4" value="amount of&amp;nbsp;&lt;div&gt;billionaires&lt;/div&gt;" style="rounded=1;whiteSpace=wrap;html=1;" vertex="1" parent="1">
          <mxGeometry x="120" y="370" width="120" height="60" as="geometry" />
        </mxCell>
        <mxCell id="DDF4RPvqAh93G92ysoaU-5" value="average wealth" style="rounded=1;whiteSpace=wrap;html=1;" vertex="1" parent="1">
          <mxGeometry x="280" y="370" width="120" height="60" as="geometry" />
        </mxCell>
        <mxCell id="DDF4RPvqAh93G92ysoaU-6" value="average age" style="rounded=1;whiteSpace=wrap;html=1;" vertex="1" parent="1">
          <mxGeometry x="440" y="370" width="120" height="60" as="geometry" />
        </mxCell>
        <mxCell id="DDF4RPvqAh93G92ysoaU-7" value="percentage&lt;div&gt;self made&lt;/div&gt;" style="rounded=1;whiteSpace=wrap;html=1;" vertex="1" parent="1">
          <mxGeometry x="600" y="370" width="120" height="60" as="geometry" />
        </mxCell>
        <mxCell id="DDF4RPvqAh93G92ysoaU-8" value="gender" style="ellipse;whiteSpace=wrap;html=1;aspect=fixed;" vertex="1" parent="1">
          <mxGeometry x="680" y="500" width="110" height="110" as="geometry" />
        </mxCell>
        <mxCell id="DDF4RPvqAh93G92ysoaU-9" value="bar: amount of billionaires vs population" style="rounded=1;whiteSpace=wrap;html=1;" vertex="1" parent="1">
          <mxGeometry x="40" y="470" width="280" height="170" as="geometry" />
        </mxCell>
        <mxCell id="DDF4RPvqAh93G92ysoaU-11" value="line: net worth vs cpi" style="rounded=1;whiteSpace=wrap;html=1;" vertex="1" parent="1">
          <mxGeometry x="360" y="470" width="280" height="170" as="geometry" />
        </mxCell>
        <mxCell id="DDF4RPvqAh93G92ysoaU-12" value="column: rank, name, country" style="rounded=1;whiteSpace=wrap;html=1;" vertex="1" parent="1">
          <mxGeometry x="40" y="680" width="280" height="240" as="geometry" />
        </mxCell>
        <mxCell id="DDF4RPvqAh93G92ysoaU-13" value="&lt;font style=&quot;text-align: left;&quot;&gt;bar: net worth&lt;/font&gt;&lt;span style=&quot;text-align: left; background-color: initial;&quot;&gt;&amp;nbsp;vs industrie&lt;/span&gt;" style="rounded=1;whiteSpace=wrap;html=1;" vertex="1" parent="1">
          <mxGeometry x="40" y="960" width="360" height="170" as="geometry" />
        </mxCell>
        <mxCell id="DDF4RPvqAh93G92ysoaU-14" value="geo: amount of billionaires vs country" style="rounded=1;whiteSpace=wrap;html=1;" vertex="1" parent="1">
          <mxGeometry x="360" y="680" width="430" height="240" as="geometry" />
        </mxCell>
        <mxCell id="DDF4RPvqAh93G92ysoaU-15" value="&lt;font style=&quot;text-align: left;&quot;&gt;bar: amount of billionaires&lt;/font&gt;&lt;span style=&quot;text-align: left; background-color: initial;&quot;&gt;&amp;nbsp;vs industrie&lt;/span&gt;" style="rounded=1;whiteSpace=wrap;html=1;" vertex="1" parent="1">
          <mxGeometry x="440" y="960" width="350" height="170" as="geometry" />
        </mxCell>
      </root>
    </mxGraphModel>
  </diagram>
</mxfile>
